<svg xmlns="http://www.w3.org/2000/svg" viewBox="0 0 74 74" fill="none">
  <g shape-rendering="geometricPrecision">
    <polygon points="37,37 37,3 46.11,24.46" fill="#A78BFA" />
    <polygon points="37,37 46.11,24.46 69.34,26.49" fill="#8B5CF6" />
    <polygon points="37,37 69.34,26.49 51.74,41.79" fill="#7C3AED" />
    <polygon points="37,37 51.74,41.79 56.98,64.51" fill="#6D28D9" />
    <polygon points="37,37 56.98,64.51 37,52.5" fill="#5B21B6" />
    <polygon points="37,37 37,52.5 17.02,64.51" fill="#6D28D9" />
    <polygon points="37,37 17.02,64.51 22.26,41.79" fill="#7C3AED" />
    <polygon points="37,37 22.26,41.79 4.66,26.49" fill="#8B5CF6" />
    <polygon points="37,37 4.66,26.49 27.89,24.46" fill="#A78BFA" />
    <polygon points="37,37 27.89,24.46 37,3" fill="#C4B5FD" />
  </g>
</svg>
