<svg width="48" height="48" viewBox="0 0 48 48" fill="none" xmlns="http://www.w3.org/2000/svg">
  <path d="M37.5 22.8C36.6 16.5 31.2 11.6 24.6 11.6C19.1 11.6 14.3 15.1 12.3 20.1C7.6 20.8 4 24.9 4 29.8C4 35.3 8.5 39.8 14 39.8H37C41.4 39.8 45 36.2 45 31.8C45 27.6 41.7 24.1 37.5 22.8Z" fill="#F38020"/>
  <path d="M35.6 24.2L34.8 23.8C33.8 18.8 29.5 15 24.3 15C20.2 15 16.6 17.4 14.9 21.1L14.2 22.6L12.6 22.8C9.5 23.3 7.1 26 7.1 29.2C7.1 32.8 10 35.7 13.6 35.7H36.3C39.2 35.7 41.6 33.3 41.6 30.4C41.6 27.7 39.5 25.4 36.8 25.1L35.6 24.2Z" fill="#FAAD3F"/>
</svg>
